#!OML:ASF H:\BreakDance\Project 1\Capture day 1\Session 1\Male.ASF
:FULLY-SPECIFIED
:DEGREES
655
root 2.38258 11.6778 -10.0802 -498.269 -205.93 218.268
lowerback 19.0082 -4.1822 2.14553
upperback 7.57123 -4.6118 3.08553
thorax -2.36186 -2.14942 2.99905
lowerneck -14.2734 -8.49592 -8.39139
upperneck -2.70092 -10.2247 8.64243
head 2.32447 -4.82402 3.27725
rclavicle -1.59028e-014 -1.90833e-014
rhumerus 9.00145 4.12171 -51.2962
rradius 12.8525
rwrist -13.5242
rhand 7.76133 334.52
rfingers 7.12502
rthumb 33.0001 -412.48
lclavicle -1.59028e-014 -1.90833e-014
lhumerus 62.3965 -43.7585 40.7363
lradius 69.4388
lwrist 1.91122
lhand -23.9814 321.268
lfingers 7.12502
lthumb 2.49532 -8.7666
rfemur -96.3863 -7.37343 36.3513
rtibia 80.5465
rfoot -22.1359 -23.9362
rtoes 43.1903
lfemur -48.4108 32.7802 -34.9878
ltibia 97.6558
lfoot -26.6493 -3.39796
ltoes -55.3053
656
root 2.23971 11.6408 -10.1133 -498.345 -209.423 219.8
lowerback 18.2464 -4.19433 1.88652
upperback 7.30249 -4.71633 2.89719
thorax -2.25084 -2.20674 2.92045
lowerneck -14.2854 -8.18126 -7.84461
upperneck -1.81276 -9.89586 7.89218
head 2.49761 -4.67226 2.97739
rclavicle -1.33583e-013 -6.36111e-015
rhumerus 5.99287 5.38634 -52.7657
rradius 12.8622
rwrist -13.6808
rhand 6.76441 333.695
rfingers 7.12502
rthumb 32.0514 -413.501
lclavicle -1.33583e-013 -6.36111e-015
lhumerus 57.5896 -46.0947 43.6281
lradius 70.0689
lwrist 2.08343
lhand -24.4415 321.495
lfingers 7.12502
lthumb 2.051 -8.53556
rfemur -96.2633 -9.92316 36.7502
rtibia 80.4497
rfoot -20.8291 -24.1204
rtoes 42.9385
lfemur -45.6617 33.7029 -33.0926
ltibia 96.7252
lfoot -28.1637 -2.41437
ltoes -55.0224
657
root 2.10144 11.6164 -10.1374 -497.986 -212.876 221.606
lowerback 17.406 -4.11961 1.74561
upperback 7.01481 -4.69605 2.62556
thorax -2.1368 -2.20164 2.65906
lowerneck -14.4562 -7.8827 -7.07081
upperneck -0.957369 -9.60743 7.10738
head 2.68108 -4.54151 2.62488
rclavicle 7.63333e-014 4.13472e-014
rhumerus 2.84514 5.64728 -54.628
rradius 12.9373
rwrist -13.8083
rhand 4.26756 331.406
rfingers 7.12502
rthumb 29.6711 -416.241
lclavicle 7.63333e-014 4.13472e-014
lhumerus 52.9831 -48.4209 46.362
lradius 70.3783
lwrist 2.52707
lhand -24.6527 321.926
lfingers 7.12502
lthumb 1.84698 -8.10245
rfemur -96.4033 -12.5746 36.9394
rtibia 80.4058
rfoot -19.7584 -23.9143
rtoes 43.3461
lfemur -43.2523 34.5671 -31.522
ltibia 95.4761
lfoot -29.9735 -1.11657
ltoes -54.431
658
root 1.96904 11.6036 -10.1552 -497.118 -216.342 223.74
lowerback 16.5481 -4.0093 1.68182
upperback 6.66658 -4.61575 2.36634
thorax -2.07998 -2.16725 2.36057
lowerneck -14.7686 -7.57596 -6.34266
upperneck -0.112282 -9.2917 6.37054
head 2.89198 -4.39435 2.29203
rclavicle 1.59028e-014 -1.39944e-013
rhumerus -0.302596 5.29953 -56.6047
rradius 12.9364
rwrist -13.2967
rhand 0.891662 329.028
rfingers 7.12502
rthumb 26.4442 -419.147
lclavicle 1.59028e-014 -1.39944e-013
lhumerus 48.3792 -50.6644 49.2033
lradius 70.3779
lwrist 3.0839
lhand -24.5108 322.584
lfingers 7.12502
lthumb 1.984 -7.44556
rfemur -96.8053 -15.3699 36.991
rtibia 80.392
rfoot -18.7687 -23.3955
rtoes 44.0948
lfemur -41.3711 35.3043 -30.2349
ltibia 94.1414
lfoot -31.7885 0.0601001
ltoes -53.6643
659
root 1.8435 11.6012 -10.1687 -495.697 -219.82 226.273
lowerback 15.6581 -3.87633 1.76021
upperback 6.3117 -4.48626 2.07565
thorax -2.02238 -2.10719 1.94273
lowerneck -15.2211 -7.25798 -5.64674
upperneck 0.665032 -8.94817 5.6974
head 3.11284 -4.2305 1.98307
rclavicle -3.81667e-014 3.49861e-014
rhumerus -3.38463 4.25185 -58.6402
rradius 12.7842
rwrist -11.6944
rhand -2.34427 327.806
rfingers 7.12502
rthumb 23.3432 -420.798
lclavicle -3.81667e-014 3.49861e-014
lhumerus 43.9383 -52.802 51.9842
lradius 70.1055
lwrist 3.56138
lhand -23.9643 323.347
lfingers 7.12502
lthumb 2.51186 -6.68796
rfemur -97.4214 -18.3417 36.9813
rtibia 80.3674
rfoot -17.6381 -22.7513
rtoes 44.6792
lfemur -40.1285 35.8851 -29.2049
ltibia 92.9232
lfoot -33.3095 0.748152
ltoes -52.7606
